<svg width="143" height="37" viewBox="0 0 143 37" fill="none" xmlns="http://www.w3.org/2000/svg">
<path d="M22.2921 11.5168V16.4672H27.4571C28.3909 16.4672 29.1204 16.2804 29.704 15.9068C30.2877 15.5332 30.5503 14.8793 30.5503 13.9453C30.5503 12.8867 30.171 12.2018 29.4122 11.8905C28.7703 11.6414 27.924 11.5168 26.9027 11.5168H22.2921ZM22.2921 20.1723V26.1501H27.4571C28.3909 26.1501 29.0912 26.0255 29.6165 25.7453C30.5503 25.2783 31.0172 24.3442 31.0172 22.9433C31.0172 21.7913 30.5503 20.9818 29.6457 20.5458C29.1497 20.2968 28.4493 20.1723 27.5155 20.1723H22.2921ZM28.3033 7.625C30.8713 7.68731 32.7097 8.46565 33.7895 10.0224C34.4314 10.9875 34.7524 12.1084 34.7524 13.4471C34.7524 14.817 34.4314 15.9068 33.7895 16.7474C33.4101 17.2145 32.8848 17.6192 32.1844 18.024C33.2642 18.4287 34.0813 19.0825 34.6065 19.9855C35.1609 20.8883 35.4236 21.978 35.4236 23.2857C35.4236 24.5934 35.1318 25.8076 34.4898 26.835C34.0813 27.5512 33.5852 28.1427 33.0015 28.6097C32.3304 29.1702 31.5133 29.5437 30.6087 29.7306C29.704 29.9485 28.7119 30.0419 27.6322 30.0419H18.1191V7.625H28.3033Z" fill="#10CA00"/>
<path d="M41.7495 13.3828V23.377C41.7495 24.3111 41.845 25.0271 42.0676 25.4941C42.4811 26.3348 43.2762 26.7396 44.4531 26.7396C45.9799 26.7396 46.9977 26.148 47.5702 24.9648C47.8564 24.3111 47.9837 23.4705 47.9837 22.3807V13.3828H52.5002V29.9464H48.1745V27.6113C48.1427 27.6424 48.0473 27.7981 47.8564 28.0472C47.6973 28.3275 47.5066 28.5453 47.2839 28.7322C46.5842 29.3237 45.9162 29.7597 45.2801 29.9776C44.6121 30.1955 43.8806 30.32 42.99 30.32C40.4772 30.32 38.7915 29.4171 37.9327 27.6736C37.4556 26.7085 37.2012 25.245 37.2012 23.377V13.3828H41.7495Z" fill="#10CA00"/>
<path d="M62.7645 26.3877C63.8141 26.3877 64.7047 25.9829 65.4045 25.2357C66.1042 24.4574 66.4859 23.2431 66.4859 21.5618C66.4859 20.0051 66.1361 18.822 65.4681 17.9813C64.7683 17.1719 63.8777 16.7671 62.7327 16.7671C61.1742 16.7671 60.0927 17.4832 59.5202 18.9154C59.2021 19.6626 59.0431 20.5966 59.0431 21.7175C59.0431 22.6826 59.2021 23.5233 59.552 24.2705C60.1563 25.6715 61.2378 26.3877 62.7645 26.3877ZM61.6831 12.9688C62.51 12.9688 63.2734 13.0932 63.9096 13.3423C64.9592 13.7782 65.8497 14.5877 66.5177 15.7396V13.3734H70.8117V29.0964C70.8117 31.2136 70.4299 32.8326 69.6984 33.9223C68.4579 35.7903 66.0088 36.7244 62.4464 36.7244C60.2836 36.7244 58.5024 36.2885 57.1347 35.4789C55.7669 34.6383 55.0036 33.3929 54.8764 31.7428H59.6792C59.8065 32.2409 60.0291 32.6146 60.2836 32.8326C60.7607 33.2373 61.5876 33.4241 62.7009 33.4241C64.2912 33.4241 65.3727 32.9259 65.9134 31.8673C66.2632 31.2136 66.4223 30.0615 66.4223 28.5048V27.4152C66.0088 28.1312 65.5635 28.6605 65.0546 29.0342C64.1958 29.688 63.0507 29.9993 61.6194 29.9993C59.4565 29.9993 57.7072 29.2521 56.4349 27.7576C55.1309 26.2632 54.4629 24.2395 54.4629 21.6864C54.4629 19.2268 55.0991 17.1718 56.3395 15.4906C57.6118 13.8093 59.3929 12.9688 61.6831 12.9688Z" fill="#10CA00"/>
<path d="M77.6295 11.4113V16.3617H82.7288C83.6507 16.3617 84.371 16.1749 84.9471 15.8013C85.5233 15.4277 85.7826 14.7738 85.7826 13.8399C85.7826 12.7813 85.4081 12.0963 84.6591 11.785C84.0252 11.536 83.1898 11.4113 82.1814 11.4113H77.6295ZM77.6295 20.0668V26.0446H82.7288C83.6507 26.0446 84.3421 25.92 84.8607 25.6398C85.7826 25.1728 86.2436 24.2388 86.2436 22.8378C86.2436 21.6858 85.7826 20.8763 84.8895 20.4404C84.3998 20.1913 83.7083 20.0668 82.7864 20.0668H77.6295ZM83.5642 7.51953C86.0995 7.58184 87.9145 8.36018 88.9804 9.91693C89.6142 10.8821 89.9311 12.0029 89.9311 13.3416C89.9311 14.7116 89.6142 15.8013 88.9804 16.6419C88.606 17.109 88.0873 17.5137 87.396 17.9185C88.4619 18.3233 89.2685 18.977 89.7871 19.88C90.3345 20.7828 90.5938 21.8726 90.5938 23.1802C90.5938 24.4879 90.3057 25.7021 89.6719 26.7296C89.2685 27.4457 88.7788 28.0372 88.2026 28.5042C87.5401 29.0647 86.7333 29.4382 85.8402 29.6251C84.9471 29.843 83.9676 29.9364 82.9017 29.9364H73.5098V7.51953H83.5642Z" fill="#10CA00"/>
<path d="M102.689 21.8732C102.435 22.06 102.148 22.1845 101.862 22.309C101.576 22.4024 101.194 22.4959 100.685 22.5892L99.6993 22.7761C98.7451 22.9317 98.0771 23.1497 97.6955 23.3676C96.9957 23.7724 96.6458 24.364 96.6458 25.2046C96.6458 25.9517 96.8684 26.4811 97.2819 26.8236C97.6954 27.1349 98.2044 27.3217 98.8086 27.3217C99.7629 27.3217 100.653 27.0415 101.449 26.4811C102.244 25.9517 102.657 24.9555 102.689 23.4922V21.8732ZM100.017 19.8495C100.844 19.7561 101.417 19.6314 101.767 19.4759C102.403 19.2268 102.721 18.7908 102.721 18.2616C102.721 17.5766 102.466 17.1096 101.989 16.8294C101.512 16.5803 100.813 16.4558 99.8901 16.4558C98.8405 16.4558 98.0771 16.7049 97.6637 17.203C97.3455 17.5766 97.1229 18.1059 97.0275 18.7286H92.7654C92.8608 17.2964 93.2743 16.0821 94.0059 15.1481C95.1827 13.7159 97.1865 12.9688 100.017 12.9688C101.894 12.9688 103.516 13.3423 104.979 14.0584C106.411 14.7744 107.142 16.1132 107.142 18.1371V25.7338C107.142 26.2632 107.142 26.8858 107.174 27.6331C107.206 28.1935 107.269 28.5982 107.428 28.7851C107.555 29.0029 107.778 29.1586 108.064 29.2832V29.937H103.262C103.135 29.5946 103.039 29.2832 102.975 29.0029C102.943 28.6916 102.88 28.3803 102.848 27.9756C102.244 28.6294 101.544 29.1897 100.749 29.6568C99.7947 30.1861 98.7133 30.4664 97.5046 30.4664C95.9779 30.4664 94.7055 30.0304 93.7195 29.1586C92.7335 28.318 92.2246 27.1038 92.2246 25.5159C92.2246 23.4922 93.0199 22.0288 94.6102 21.0949C95.5008 20.5966 96.8048 20.2542 98.5224 20.0363L100.017 19.8495Z" fill="#10CA00"/>
<path d="M114.268 24.6519C114.364 25.4302 114.586 25.9594 114.873 26.302C115.446 26.8624 116.463 27.1737 117.926 27.1737C118.785 27.1737 119.484 27.0492 119.994 26.769C120.503 26.5199 120.757 26.1462 120.757 25.6481C120.757 25.15 120.566 24.7763 120.153 24.5272C119.74 24.2782 118.213 23.8423 115.541 23.2197C113.632 22.7526 112.264 22.161 111.469 21.476C110.706 20.7911 110.293 19.7948 110.293 18.4871C110.293 16.9616 110.929 15.6539 112.137 14.5642C113.378 13.4433 115.096 12.9141 117.322 12.9141C119.421 12.9141 121.17 13.3188 122.475 14.1283C123.81 14.9689 124.574 16.4011 124.765 18.4248H120.344C120.28 17.8644 120.121 17.4286 119.867 17.086C119.389 16.5256 118.562 16.2143 117.386 16.2143C116.431 16.2143 115.732 16.37 115.318 16.6502C114.905 16.9616 114.713 17.3041 114.713 17.6776C114.713 18.1758 114.937 18.5495 115.382 18.7674C115.795 19.0165 117.354 19.39 119.994 19.9817C121.743 20.3863 123.047 20.9779 123.937 21.8186C124.797 22.628 125.242 23.6866 125.242 24.932C125.242 26.5822 124.606 27.921 123.365 28.9483C122.125 29.9758 120.185 30.5051 117.577 30.5051C114.937 30.5051 112.965 29.9447 111.692 28.855C110.42 27.7652 109.783 26.3641 109.783 24.6519H114.268Z" fill="#10CA00"/>
<path d="M134.974 16.4907C133.957 16.4907 133.161 16.802 132.588 17.4558C132.016 18.0786 131.666 18.9192 131.539 20.0089H138.409C138.345 18.8569 137.964 17.9852 137.328 17.3936C136.692 16.802 135.928 16.4907 134.974 16.4907ZM134.974 12.9414C136.374 12.9414 137.646 13.1905 138.791 13.7197C139.904 14.2178 140.826 15.0274 141.558 16.1482C142.226 17.1445 142.671 18.2654 142.862 19.5731C142.989 20.3202 143.021 21.4411 142.989 22.8422H131.412C131.476 24.5234 132.016 25.6753 133.002 26.3604C133.638 26.7651 134.37 26.983 135.228 26.983C136.12 26.983 136.883 26.7339 137.455 26.2047C137.741 25.9556 138.027 25.5509 138.25 25.0838H142.798C142.671 26.049 142.131 27.0453 141.209 28.0727C139.777 29.6917 137.741 30.5013 135.133 30.5013C132.97 30.5013 131.061 29.8163 129.44 28.4463C127.786 27.1075 126.959 24.897 126.959 21.8147C126.959 18.9503 127.69 16.7398 129.186 15.2142C130.68 13.6886 132.589 12.9414 134.974 12.9414Z" fill="#10CA00"/>
<path d="M16.9284 0.0364657C16.0646 0.139165 15.2478 0.584318 14.5346 0.886113C13.2395 1.43418 11.7052 1.96673 11.1524 2.9494C10.8482 3.48987 10.8998 4.12707 10.8998 4.69378C10.8998 5.09865 10.8956 5.50056 10.9401 5.90365C10.9585 6.06946 10.9298 6.30087 11.1389 6.42597C11.332 6.5416 11.7598 6.52253 12.008 6.52259C12.7623 6.5228 13.5176 6.54844 14.2687 6.5507C16.4702 6.55749 18.672 6.55075 20.8735 6.55075H22.9569C23.2606 6.55075 23.6369 6.58877 23.9322 6.54182C24.4609 6.4577 24.4641 6.11912 24.4641 5.84737C24.4641 5.19074 24.4214 4.53226 24.4197 3.87789C24.4181 3.2163 24.1248 2.57533 23.3925 2.07827C23.153 1.91574 22.8377 1.79166 22.558 1.65875C21.9536 1.37149 21.3242 1.10498 20.6962 0.839207C20.1245 0.597351 19.5207 0.29437 18.8787 0.133779C18.3252 -0.00473218 17.512 -0.0329514 16.9284 0.0364657Z" fill="white"/>
<path d="M8.97002 11.951C8.79099 12.7495 8.46468 15.1134 8.36685 15.1895C8.27861 15.258 3.95467 15.5079 3.65402 15.6376C3.4449 15.7278 0.421308 18.3809 0.163763 18.7978C-0.175002 19.3458 0.0346437 20.109 0.582574 20.4718C0.943478 20.7108 1.40876 20.7733 1.84263 20.7009C2.40067 20.6076 4.80422 18.3635 4.95345 18.2762C5.23473 18.1116 7.64387 18.0314 8.41874 18.0008C8.49257 18.5381 8.52487 22.1203 8.47378 22.2353C8.41896 22.3586 5.43454 23.5897 4.55971 24.1121C3.93221 24.4867 2.49695 28.3078 2.37283 28.941C2.1585 30.0347 3.51707 30.7791 4.52032 30.3077C5.16134 30.0064 6.06847 26.8053 6.4091 26.3727C6.57223 26.1657 8.61545 25.3377 9.32444 25.0286C9.48639 25.3846 9.73005 25.7168 9.95253 26.0429C10.9165 27.4562 12.2777 28.5333 13.8923 29.2759C14.8138 29.6999 15.8066 30.0278 16.8457 30.0278C16.8457 24.9183 16.9324 8.07754 16.8724 7.85744C16.8303 7.70261 16.6595 7.54558 16.4912 7.50669C16.3213 7.46754 12.0602 7.4515 11.7265 7.5808C11.4296 7.69582 11.2157 7.92487 11.0146 8.14729C10.667 8.53191 10.3232 8.95099 10.112 9.41516C9.76385 9.24461 6.73531 7.99014 6.63243 7.88372C6.48563 7.7318 5.14617 4.36428 4.86175 4.10692C4.58898 3.85994 4.14382 3.77233 3.77212 3.76586C2.90895 3.75083 2.2979 4.45772 2.35809 5.21296C2.39088 5.62467 4.26996 9.79078 4.48504 9.99144C4.91923 10.3964 8.56564 11.8492 8.97002 11.951Z" fill="white"/>
</svg>
